<svg xmlns="http://www.w3.org/2000/svg" xmlns:xlink="http://www.w3.org/1999/xlink" version="1.1" id="Layer_1" x="0px" y="0px" width="100%" viewBox="0 0 928 736" enable-background="new 0 0 928 736" xml:space="preserve" transform="matrix(1, 0, 0, 1, 0, 0)">
<path fill="#c4e536" opacity="1.000000" stroke="none" d=" M288.379089,439.275024   C268.743011,472.118896 240.840286,492.870972 203.299011,499.632019   C172.732620,505.136932 144.105591,499.798889 117.688789,483.027954   C113.323448,480.256653 116.088577,476.939606 115.821999,473.292969   C104.753838,476.975800 97.424858,470.984344 90.653259,463.959198   C83.254311,456.283264 76.073036,448.397339 68.808418,440.592163   C67.180161,438.842834 65.424484,437.523132 62.867100,437.314240   C55.092247,436.679047 50.385532,432.078400 48.260483,424.930176   C46.079273,417.593079 47.670513,410.701416 53.713631,405.970245   C57.377094,403.102081 57.544724,400.399078 56.510075,396.591736   C54.938068,390.807007 53.583378,384.962494 52.180714,379.132721   C50.860928,373.647369 52.499443,371.917664 58.752808,372.607086   C60.182060,365.511261 60.643959,358.217560 62.281250,351.106293   C66.157486,334.270599 73.134499,318.949951 83.695923,305.323395   C86.160278,302.143829 86.938080,299.456299 85.721878,295.368256   C82.180725,283.465271 85.174225,272.871094 94.207832,264.379669   C102.989777,256.124817 113.410507,254.059570 124.776924,258.102661   C127.770767,259.167603 130.045166,259.052307 132.664566,257.268890   C135.262589,255.500031 138.139877,254.059570 141.050278,252.849243   C146.231964,250.694412 150.543442,248.554276 153.348190,242.625015   C157.184891,234.514221 168.378784,233.698288 175.373154,239.750031   C176.501587,240.726364 177.591110,241.747665 178.972214,242.995316   C183.547775,238.165787 188.930847,234.497665 196.299667,236.294617   C203.427521,238.032806 207.017715,243.132294 208.465210,249.909286   C224.534973,245.621887 234.294250,257.233398 230.001343,270.143188   C240.018173,270.001373 247.062500,276.196075 254.198883,281.783722   C277.770538,300.239929 294.107513,323.688568 301.111267,353.000244   C308.330933,383.215576 303.261322,411.841064 288.379089,439.275024  M143.826767,488.661530   C162.633698,495.318909 181.864120,495.975830 201.480499,493.322571   C211.227280,492.004181 215.206711,484.930756 219.245102,477.638062   C220.620010,475.155243 220.566879,473.031189 217.004105,471.984100   C214.323730,471.196289 212.319565,469.071289 212.935501,465.928741   C213.568710,462.697937 216.199219,461.431061 219.175720,461.058258   C224.413361,460.402161 227.013672,463.442474 228.076660,468.373901   C231.950165,466.613525 235.552277,467.357758 240.149780,468.133301   C230.319397,431.922821 223.014343,395.965912 222.549881,357.355896   C202.501694,376.911560 179.347336,381.701294 154.262634,378.957031   C153.743912,382.997955 154.973740,385.617523 155.710846,388.316833   C156.233643,390.231323 157.546112,391.127258 159.498077,390.460815   C163.931931,388.946899 165.199219,391.261200 165.396896,395.106781   C165.607452,399.202759 167.318192,401.144257 171.922684,401.188721   C177.785980,401.245331 183.500488,403.194275 188.521667,406.186981   C193.502243,409.155457 198.104492,410.621002 203.194260,406.838989   C203.323853,406.742706 203.759354,407.058075 204.047455,407.192688   C204.019913,414.478668 199.779068,417.768585 193.295334,415.405396   C191.276993,414.669769 189.400482,413.542145 187.465775,412.580414   C181.458160,409.594055 175.307541,406.962585 168.426071,407.342224   C159.278839,407.846893 154.382812,416.408386 158.446915,424.607208   C159.632736,426.999451 161.104202,429.228760 163.064819,431.091309   C172.089249,439.664581 182.828903,444.648865 195.191254,445.670990   C210.494049,446.936310 219.007309,439.155182 219.797379,423.777374   C219.884766,422.076660 219.143463,420.028473 221.654739,418.644257   C225.153534,422.212097 225.044800,426.861298 224.612976,431.115204   C223.068604,446.328857 209.202652,455.561310 192.888733,452.869415   C186.012604,451.734802 179.634171,449.115570 172.453445,446.347290   C174.028519,451.316132 171.821243,453.121613 168.034836,454.090454   C164.817062,454.913788 161.710083,456.169830 158.553513,457.232727   C148.456543,460.632690 138.404495,464.175598 128.242630,467.369080   C123.365105,468.901917 123.755600,473.132996 122.875008,476.629730   C122.081619,479.780182 125.228836,480.360321 127.131401,481.285614   C132.366226,483.831573 137.756683,486.057587 143.826767,488.661530  M206.196411,362.726624   C222.934677,351.900970 232.337341,336.669556 234.179047,316.725586   C235.155777,306.148560 234.630585,305.318237 224.624695,302.465210   C220.884949,301.398926 219.120407,302.006378 217.642578,305.906860   C212.061340,320.637604 199.365723,327.634338 183.422501,325.263702   C170.652023,323.364807 159.939224,311.501709 158.966553,297.365021   C158.630157,292.475861 155.957626,291.626160 152.230240,291.287689   C148.764664,290.972961 145.646317,289.679932 143.945572,295.165100   C138.573120,312.491882 123.376877,320.437775 105.837456,315.957764   C104.262489,315.555481 102.757469,314.624390 100.832191,315.291534   C100.638306,315.801666 100.310059,316.387299 100.193428,317.012360   C95.832153,340.386017 103.201630,357.382751 127.553810,366.754761   C137.661026,370.644562 148.241608,371.724640 158.888107,372.231354   C175.160233,373.005798 191.236359,372.395142 206.196411,362.726624  M264.697571,325.630890   C261.393402,317.342407 261.881195,308.251892 259.127380,299.800873   C257.135071,293.686737 252.740173,290.173950 247.640732,285.672791   C246.573776,290.231384 244.093307,292.806885 242.460434,296.391815   C248.039490,299.571136 252.680038,303.519287 252.718674,310.580536   C252.757172,317.616791 247.917175,321.431183 242.606110,324.727631   C243.243576,325.620544 243.475555,326.072632 243.820297,326.409241   C248.699158,331.173462 250.453644,336.911346 247.996277,343.271057   C245.557404,349.582916 240.411118,352.719604 233.691208,353.299774   C232.261673,353.423218 230.601273,353.185974 229.963608,354.943146   C229.970078,356.266937 230.947632,356.693359 231.754837,357.246796   C243.395508,365.228241 244.603561,369.827606 238.077728,381.992798   C236.790604,384.392242 236.807892,386.435272 238.863434,388.275452   C243.369217,392.309082 245.521301,397.313660 245.292450,403.364777   C245.239700,404.759674 245.553711,406.140625 247.152527,406.504852   C248.939423,406.911926 250.992615,406.317993 251.402939,404.718842   C252.759262,399.432770 254.644333,394.647736 259.183960,391.189087   C260.268158,390.363068 259.564331,388.664795 259.490143,387.349731   C259.055908,379.649078 262.136841,374.960602 269.671143,372.977325   C272.670837,372.187744 273.746918,370.653290 274.167297,367.921417   C274.773285,363.983307 274.415924,359.257599 276.511383,356.328735   C280.221741,351.142609 277.862061,347.447205 275.787750,343.058380   C272.916626,336.983795 267.906219,332.347168 264.697571,325.630890  M126.767532,460.063721   C138.413803,457.210938 149.682648,453.145447 161.022034,449.319214   C166.141937,447.591583 166.924133,443.998657 163.194778,439.885132   C161.185135,437.668488 158.800873,435.785614 156.843231,433.528748   C149.019882,424.509552 146.315750,414.234070 157.578644,404.864227   C160.146820,402.727783 160.109634,400.492859 158.018112,397.634277   C144.322464,401.928223 130.689270,406.206329 117.053062,410.474731   C114.346642,411.321930 114.179161,413.075867 114.772141,415.567902   C116.812408,424.142517 118.289902,432.867462 120.688873,441.334808   C122.437561,447.506897 122.442734,454.224884 126.767532,460.063721  M280.087219,427.759216   C280.720398,426.226318 281.269012,424.651855 281.999725,423.166931   C290.244812,406.411102 286.566895,390.047119 280.472076,373.681274   C278.195526,382.059296 276.301331,390.455322 273.448029,398.581879   C268.556488,412.513702 263.280304,427.001740 251.112427,435.628632   C240.846497,442.907074 240.736389,450.071960 244.847427,459.740570   C245.557816,461.411285 245.833344,463.261810 246.447250,464.980164   C247.040009,466.639282 247.225891,468.625732 249.427414,469.404175   C264.499390,459.456329 274.894958,446.004791 280.087219,427.759216  M200.738312,260.712311   C176.843521,248.169907 147.299515,253.123108 135.811142,264.165253   C139.071640,268.461395 142.926727,272.682526 143.877335,278.193878   C144.651230,282.680664 146.956604,284.480347 151.188644,284.601959   C152.348190,284.635254 153.566498,284.692688 154.646179,285.063812   C158.466034,286.376831 160.539047,285.178467 162.463898,281.474335   C165.747009,275.156311 170.784454,270.225769 177.575912,267.559448   C195.980133,260.334015 214.359222,270.187469 219.148392,289.758514   C220.665207,295.956970 224.263840,297.844391 230.492874,295.597076   C230.472595,292.694580 229.073013,290.209137 227.810196,287.722260   C221.863480,276.011169 211.780823,268.383667 200.738312,260.712311  M186.902069,319.704193   C188.065018,319.718140 189.229233,319.774445 190.390701,319.739380   C200.405853,319.437195 209.471405,312.582672 212.402893,303.114960   C215.532578,293.007202 212.272278,282.807983 203.884735,276.467743   C195.770569,270.334137 184.656174,269.826080 176.367111,275.523224   C168.115982,281.194366 164.369461,289.146454 165.887482,299.137024   C167.647888,310.722839 174.803680,317.259003 186.902069,319.704193  M138.842789,285.709686   C138.059448,275.398010 132.843369,268.033844 123.228577,264.584503   C113.494492,261.092377 104.293221,262.944885 97.248459,270.828369   C90.284576,278.621277 89.178993,287.791656 93.381531,297.330139   C97.766479,307.282623 108.554924,312.531647 119.382370,310.352875   C130.900864,308.035065 138.393082,298.900665 138.842789,285.709686  M90.121597,391.361969   C86.581673,387.160187 83.046036,382.954803 79.499290,378.758759   C78.411766,377.472168 77.342697,376.017487 75.357346,377.273773   C72.888954,378.835693 70.024353,379.843689 67.710983,382.347687   C69.896164,384.394409 71.839813,386.178375 73.743050,388.004486   C79.266472,393.304138 85.898903,397.461121 90.663986,403.489532   C94.402138,408.218781 98.593613,409.604675 104.228897,407.811493   C118.031654,403.419373 131.823395,398.978455 145.726379,394.923431   C150.442886,393.547821 149.374817,390.889893 148.624573,387.701721   C147.747482,383.974609 145.636429,383.988037 142.646317,385.097900   C132.188324,388.979645 121.783287,392.976379 111.566490,397.471436   C98.859245,403.062286 98.826385,402.987579 90.121597,391.361969  M63.401199,398.010925   C63.860237,400.038391 64.743538,401.481812 66.902580,402.403046   C80.069550,408.021088 83.315163,420.266052 74.857033,431.935303   C74.089645,432.994049 72.586769,434.168213 73.631897,435.376495   C77.985115,440.409302 82.354675,445.482422 88.042557,449.209686   C90.230537,446.313629 89.985817,443.662537 89.603828,441.016602   C88.370522,432.473969 86.814514,423.965393 85.944786,415.386719   C85.271217,408.743042 83.118767,403.518372 77.333382,399.575439   C72.843628,396.515564 69.113762,392.349030 64.986061,388.743134   C64.096123,387.965668 63.291992,386.532959 61.253250,387.714050   C61.906815,390.808594 62.584763,394.018646 63.401199,398.010925  M114.901550,445.173798   C113.641022,439.757172 112.380493,434.340546 110.974701,428.299683   C105.481674,430.739685 100.237755,430.376526 94.776466,429.979950   C95.356125,434.898743 95.915726,439.152618 96.342659,443.419800   C96.713341,447.124695 98.599670,449.461334 102.099693,450.723389   C106.248138,452.219238 110.240318,452.101044 114.069504,449.907013   C115.652573,448.999908 115.466545,447.431976 114.901550,445.173798  M55.242180,425.011169   C59.928650,432.554108 67.617943,432.733398 71.537415,425.373169   C73.454781,421.772614 73.354858,418.049652 71.928436,414.335754   C70.531097,410.697510 67.531914,408.804657 63.922337,408.541168   C60.171520,408.267426 57.269375,410.374695 55.533787,413.701721   C53.765579,417.091339 53.739502,420.685150 55.242180,425.011169  M107.831116,415.742096   C107.218124,414.483246 106.097679,414.116669 104.902298,414.465546   C101.008850,415.601837 97.072014,415.276337 93.308334,414.730927   C92.178566,416.281555 92.878494,417.590973 93.093262,418.838867   C93.815781,423.036926 98.086426,424.790344 104.288681,423.691193   C108.783371,422.894623 109.595657,420.316345 107.831116,415.742096  M185.968445,246.082901   C185.333878,247.492020 185.995697,248.365280 187.278839,248.705933   C191.527130,249.833771 195.575958,251.756546 200.221680,252.198730   C201.523209,248.573303 200.589676,245.796616 197.516281,244.037903   C193.536011,241.760269 189.650040,241.932007 185.968445,246.082901  M244.236023,428.431427   C243.866882,423.211273 241.259003,420.022095 235.655396,418.816528   C236.105927,425.031342 237.149658,430.571259 239.289658,436.071167   C242.784424,434.623688 243.526489,431.919983 244.236023,428.431427  M242.378220,340.661896   C243.023529,336.956879 243.065536,333.510986 238.568176,331.615814   C236.198547,336.596466 233.957870,341.306061 231.493805,346.485168   C236.684586,347.220856 239.950333,345.474396 242.378220,340.661896  M211.356445,258.861267   C214.904877,261.751984 218.453308,264.642700 222.202423,267.696930   C224.864517,263.972443 224.519623,260.802582 221.633148,258.483978   C218.441650,255.920364 214.731842,254.327164 211.356445,258.861267  M230.968628,278.992767   C232.944122,282.706726 234.919601,286.420715 237.248428,290.798981   C240.149521,287.301270 242.144135,284.300354 239.343170,280.718353   C237.283310,278.084106 234.747940,275.290680 230.968628,278.992767  M229.125488,367.914307   C229.278809,371.615967 229.196915,375.360260 230.608383,379.116699   C234.335419,377.313568 235.827866,374.667084 235.678543,371.280914   C235.520615,367.699921 233.646301,365.156860 230.324738,363.885864   C228.788467,364.742615 229.245361,366.022736 229.125488,367.914307  M236.400528,405.605286   C240.066116,399.097961 238.381271,394.226318 231.632767,392.790436   C231.601822,396.993073 232.065598,401.051117 232.959763,405.074707   C233.398773,407.050018 234.281174,407.751099 236.400528,405.605286  M265.345062,402.750336   C265.841248,400.930481 267.331329,399.263428 266.106476,396.870209   C262.999268,396.868713 260.255249,397.596863 259.410980,401.091003   C258.742981,403.855713 259.416992,406.243683 262.420288,407.182190   C264.159180,406.261749 264.382019,404.691193 265.345062,402.750336  M245.383942,307.207733   C244.277695,305.571198 243.226440,303.852081 240.784454,304.064880   C239.913498,306.312561 240.982422,308.405945 241.030243,310.526733   C241.076721,312.587982 240.682571,314.772980 241.809631,317.031006   C245.836441,314.835388 247.194778,311.950714 245.383942,307.207733  M271.207733,383.852020   C271.524811,382.437042 272.230530,380.988678 270.655914,379.490051   C268.104706,379.490448 266.438202,380.899323 265.972656,383.441284   C265.515320,385.938263 265.816101,388.340759 268.617981,389.488281   C270.596863,388.237488 270.507111,386.269104 271.207733,383.852020  M250.868988,424.182068   C251.363434,425.001923 252.183273,425.486023 252.848984,424.716217   C255.127213,422.081787 257.759888,419.598541 258.280884,415.294464   C253.149658,416.242401 250.455093,418.602661 250.868988,424.182068  M166.630600,246.555511   C167.820206,246.279907 169.354080,246.627655 169.765213,244.885101   C165.305481,241.929276 162.647018,242.306396 159.562210,246.355682   C161.666122,247.159973 163.793472,246.470108 166.630600,246.555511  z"/>
<path fill="#c4e536" opacity="1.000000" stroke="none" d=" M625.346558,438.766968   C606.980225,439.889099 589.054993,438.282410 571.126831,438.822083   C568.532593,438.900177 566.106567,439.211060 565.891968,434.260651   C565.691223,429.627502 564.404419,424.931152 564.869751,420.058533   C565.216431,416.428314 566.348083,414.418579 570.426758,414.706268   C574.401794,414.986572 578.411865,414.901001 582.401733,414.794556   C585.346558,414.716064 587.763611,415.204254 588.309326,418.678070   C590.780151,418.245789 590.620117,415.422241 592.733398,414.754181   C598.011719,413.085632 601.435547,415.467926 601.196167,421.069275   C601.061584,424.219360 600.613098,427.356262 600.297241,430.498230   C600.107178,432.388458 598.186890,434.684265 600.183716,436.062744   C602.582886,437.718994 604.234497,434.876862 606.224915,434.175507   C604.805115,425.191132 610.232117,418.201996 618.903137,417.529114   C618.474487,416.378479 616.505005,417.407135 616.368835,414.963898   C623.074158,414.963898 629.766357,414.898102 636.455994,414.999634   C638.792969,415.035095 639.331299,416.908600 639.535889,418.850220   C640.058289,423.808105 640.558472,428.768402 641.103638,433.723755   C641.229980,434.871735 641.426208,436.568878 642.788269,436.348175   C645.173584,435.961670 647.455017,434.933929 649.779968,434.174805   C648.737854,432.821533 652.294373,431.652954 649.747864,429.940002   C647.923218,428.712585 648.701904,426.573975 649.659607,424.780884   C651.088257,422.105896 652.921570,419.589142 652.978149,416.350739   C653.009094,414.582336 654.512512,414.833008 655.559570,414.829010   C662.210510,414.803497 668.870300,414.671234 675.510071,414.963165   C680.143921,415.166931 683.145996,418.268311 682.702209,422.855377   C681.718506,433.025055 678.532227,440.564545 665.656128,438.984802   C660.988647,438.412140 656.358887,439.105591 651.712158,439.057220   C643.071228,438.967255 634.430664,438.833862 625.346558,438.766968  M671.949890,429.745636   C673.048584,427.513153 673.255188,425.305573 671.822693,422.377899   C669.950500,425.323822 668.857361,427.545074 671.949890,429.745636  z"/>
<path fill="#c4e536" opacity="1.000000" stroke="none" d=" M706.901978,303.792206   C724.712341,304.819427 736.246094,318.326630 735.421387,336.663147   C734.690979,352.904694 721.428101,364.609467 704.171692,364.241577   C688.845337,363.914886 676.631409,350.049866 676.780640,333.147736   C676.926392,316.640869 689.741272,303.959930 706.901978,303.792206  M691.051270,341.153778   C694.568665,348.998352 699.959717,351.873566 709.150513,350.806702   C716.219849,349.986115 721.147217,344.795959 722.495605,336.749664   C724.122375,327.042755 717.745605,318.068359 708.597595,317.190308   C697.425598,316.117981 690.169495,322.460663 690.114929,333.473938   C690.103516,335.777557 690.538269,338.083405 691.051270,341.153778  z"/>
<path fill="#c4e536" opacity="1.000000" stroke="none" d=" M454.397644,355.759827   C454.089050,361.684662 452.146393,364.198395 448.258026,364.173035   C444.410126,364.147919 442.001678,361.332764 442.052032,356.121246   C442.136627,347.364105 441.798676,347.972473 433.227417,347.943024   C429.397736,347.929871 425.562836,347.982178 421.740356,347.797119   C419.119537,347.670227 418.101807,348.763031 418.142426,351.280396   C418.179993,353.608582 418.251953,355.963959 417.960358,358.263214   C417.510040,361.813873 415.540100,364.181091 411.732635,364.117004   C407.943542,364.053192 405.803986,361.712006 405.757568,358.086395   C405.616913,347.098267 405.199005,336.073730 405.883423,325.125519   C406.677643,312.420471 418.210999,303.343079 431.659332,303.810486   C443.662628,304.227692 454.075043,314.642853 454.338470,326.816132   C454.543793,336.303833 454.391144,345.799286 454.397644,355.759827  M437.193176,334.774536   C440.500671,335.080444 442.036438,333.849426 441.995789,330.255096   C441.899109,321.706512 437.711853,316.992889 429.859222,317.068451   C422.158051,317.142517 417.928864,322.162445 418.119568,330.641113   C418.186462,333.615265 419.260712,334.876160 422.260986,334.802582   C426.924408,334.688141 431.592896,334.777893 437.193176,334.774536  z"/>
<path fill="#c4e536" opacity="1.000000" stroke="none" d=" M792.783813,318.064514   C792.793640,315.578613 792.708740,313.574677 792.836365,311.584351   C793.115112,307.236877 795.470398,304.833923 799.859436,304.796539   C808.183350,304.725647 816.508545,304.742645 824.832703,304.800842   C828.979736,304.829803 831.557251,306.988922 831.640625,311.157806   C831.724365,315.346619 829.034973,317.631927 825.070679,317.894104   C820.261963,318.212128 815.420166,318.138153 810.595276,318.065063   C807.536377,318.018768 805.999878,319.046997 805.974609,322.368256   C805.950195,325.585052 807.176025,326.920258 810.388611,326.807251   C814.046570,326.678558 817.713684,326.757324 821.375793,326.813141   C825.467285,326.875488 828.121521,328.831879 828.347961,333.037537   C828.581238,337.371094 825.808167,339.416290 821.882812,339.774597   C818.413635,340.091248 814.898193,340.006470 811.406311,339.937195   C808.197510,339.873505 805.979675,340.410431 805.887512,344.461853   C805.796570,348.462219 807.198059,350.385315 811.257812,350.286682   C815.412476,350.185669 819.572021,350.067230 823.724426,350.166046   C826.436218,350.230530 829.042358,350.891235 830.649963,353.438629   C833.328430,357.682739 830.696594,362.989532 825.453796,363.149323   C816.638489,363.418030 807.800903,363.422363 798.987854,363.109650   C794.167175,362.938599 792.797913,359.293884 792.795227,355.015289   C792.787659,342.861084 792.788147,330.706879 792.783813,318.064514  z"/>
<path fill="#c4e536" opacity="1.000000" stroke="none" d=" M388.149292,327.260956   C391.853455,329.132904 392.971893,331.867462 391.930298,335.345215   C390.908386,338.757080 388.056976,339.745453 384.889221,339.849915   C381.398499,339.964935 377.871613,340.111389 374.412415,339.748901   C370.666351,339.356445 368.935364,340.406830 369.757965,344.345062   C370.128967,346.121368 369.133911,347.981903 370.199524,349.994781   C374.650635,351.067413 379.269440,350.085114 383.858398,350.103851   C386.358795,350.114044 388.878967,350.000580 391.279053,350.824799   C394.366669,351.885223 395.793762,354.221008 395.537598,357.382568   C395.279175,360.572327 393.392029,362.953796 390.210907,363.033783   C381.063812,363.263794 371.899200,363.300781 362.756836,362.978668   C358.849365,362.840973 356.967316,359.788696 356.945374,356.056763   C356.859131,341.407349 356.816376,326.755798 356.990509,312.107819   C357.049286,307.162720 359.558258,304.929016 364.635284,304.842651   C372.623871,304.706726 380.616638,304.771820 388.607208,304.819672   C392.666138,304.843964 395.388916,306.643127 395.512360,310.994598   C395.633453,315.263672 393.098358,317.518707 389.097412,317.794861   C384.623260,318.103638 380.116638,317.938141 375.624176,317.986023   C372.668427,318.017517 369.765808,317.313568 369.691071,322.271759   C369.619476,327.023621 372.085663,326.839569 375.284729,326.825684   C379.438873,326.807648 383.593933,327.000702 388.149292,327.260956  z"/>
<path fill="#c4e536" opacity="1.000000" stroke="none" d=" M629.095703,307.942627   C647.596924,297.664398 666.674377,307.938660 667.789978,328.688324   C668.281311,337.826355 667.984314,347.016174 667.800232,356.177521   C667.693115,361.509613 664.968384,364.391235 660.899231,364.181061   C657.097839,363.984680 654.893372,361.101898 654.850830,355.917633   C654.778320,347.085785 654.962524,338.250214 654.784729,329.421326   C654.628967,321.686462 650.690674,317.431244 643.867004,317.088928   C636.123596,316.700409 631.500488,320.795990 631.325317,328.601440   C631.138428,336.929932 631.264343,345.265350 631.242676,353.597748   C631.238770,355.096588 631.361084,356.625610 631.113464,358.087952   C630.531067,361.527161 628.781982,364.041443 624.960510,364.155975   C620.919495,364.277130 618.357849,361.796631 618.292236,358.149261   C618.088745,346.840271 617.208435,335.483459 618.716797,324.217529   C619.618652,317.481781 623.235291,312.127411 629.095703,307.942627  z"/>
<path fill="#c4e536" opacity="1.000000" stroke="none" d=" M845.785645,311.996094   C854.047424,302.031097 869.978760,300.945374 878.980713,309.431519   C882.320984,312.580414 882.822693,316.584015 880.166931,319.623474   C877.232422,322.981995 874.071472,322.453918 870.963745,319.898376   C867.757385,317.261688 864.085510,316.805725 860.145569,317.288544   C857.919312,317.561371 856.401550,318.705841 855.865967,320.873810   C855.276001,323.262085 856.716614,324.840912 858.647095,325.569702   C862.052490,326.855286 865.605408,327.749969 869.095825,328.810394   C873.399902,330.117950 877.790161,331.327881 881.045532,334.683411   C887.775818,341.620667 886.099487,354.135101 877.713867,360.119324   C867.678528,367.280823 851.493286,365.017548 843.817749,355.379395   C840.980347,351.816498 840.816101,347.392548 843.698792,345.047607   C847.254517,342.155212 850.576965,343.101227 853.232178,346.437225   C857.125061,351.328156 862.318542,351.430634 867.756653,350.640869   C869.864929,350.334686 871.487000,349.146637 871.778870,346.819427   C872.104614,344.221680 870.266602,343.342468 868.267822,342.739807   C863.817627,341.397980 859.203918,340.477814 854.914124,338.747742   C843.191406,334.020050 839.597290,323.500641 845.785645,311.996094  z"/>
<path fill="#c4e536" opacity="1.000000" stroke="none" d=" M472.808899,307.647491   C482.579834,302.122009 493.090820,302.589478 500.761871,308.633423   C502.367004,309.898071 503.816864,311.280396 504.241974,313.353851   C504.810120,316.124786 504.480957,318.697937 502.020935,320.547302   C499.566589,322.392303 497.031921,322.350647 494.673828,320.462555   C491.974426,318.301208 489.067139,316.910797 485.527313,317.097717   C482.480499,317.258606 479.139771,317.194611 478.550903,321.169373   C477.988403,324.966400 481.162476,325.759827 483.837830,326.661652   C488.718506,328.306946 493.927917,328.865417 498.610199,331.195526   C508.916748,336.324585 511.262909,349.270477 503.288574,357.590576   C497.016937,364.134125 489.095184,365.271515 480.692261,363.702209   C475.167084,362.670349 470.405457,359.844604 466.765289,355.443634   C463.937256,352.024506 463.802673,347.332886 466.590332,345.075012   C470.173431,342.172852 473.433899,343.205292 476.118927,346.541809   C480.034241,351.407043 485.270691,351.459900 490.709229,350.615051   C492.787445,350.292206 494.472076,349.151703 494.767853,346.802887   C495.101196,344.155579 493.148010,343.355377 491.193726,342.764221   C487.054138,341.511932 482.786133,340.631836 478.734100,339.151978   C464.085876,333.802307 461.093140,318.516876 472.808899,307.647491  z"/>
<path fill="#c4e536" opacity="1.000000" stroke="none" d=" M832.009705,439.193970   C823.701904,439.137360 815.882996,439.189514 808.073425,438.945740   C805.771240,438.873871 802.551941,440.148712 801.861267,435.920502   C801.690430,434.874298 800.058838,435.162659 799.044006,436.210144   C796.302124,439.040100 785.034241,440.315552 782.066833,438.228180   C780.562012,437.169586 779.398926,435.202179 780.367859,433.981445   C782.388428,431.435730 781.745178,428.152985 783.066406,425.869232   C784.541138,423.320221 784.426880,419.061859 787.125488,418.269745   C793.976074,416.258850 800.863159,413.228851 808.323547,415.119629   C810.809326,415.749573 810.736023,418.051575 810.891663,420.008759   C811.234314,424.317108 811.414917,428.638672 811.781311,432.944641   C811.904419,434.392120 812.022095,436.283020 813.938416,436.419769   C816.512878,436.603485 818.773743,435.259308 820.562439,433.607574   C821.628540,432.623138 821.392822,431.147766 820.384399,429.592499   C816.473999,423.561829 821.110718,414.987183 828.299500,414.754852   C833.418030,414.589447 838.514282,415.114502 843.668030,414.143433   C846.181396,413.669830 849.713379,413.704651 851.316406,416.447998   C852.823547,419.027161 850.085327,420.931244 848.967041,422.982330   C854.030945,429.796112 848.609741,441.025024 838.981934,439.326691   C836.879456,438.955811 834.665039,439.218689 832.009705,439.193970  z"/>
<path fill="#c4e536" opacity="1.000000" stroke="none" d=" M538.294861,362.773163   C534.903137,359.153320 535.697937,354.971252 535.802490,351.072632   C535.897400,347.529358 535.037720,345.416382 531.515930,343.735779   C522.430725,339.400391 518.076111,331.685852 517.702759,321.718781   C517.565735,318.062073 517.588196,314.392792 517.707520,310.734802   C517.839050,306.700928 519.767090,303.876984 524.043518,303.943756   C528.307190,304.010315 530.126709,306.905426 530.239929,310.914673   C530.343201,314.574158 530.157166,318.245270 530.349609,321.898010   C530.705994,328.659424 534.883606,332.630280 541.538391,332.773132   C548.707642,332.927032 553.131226,329.344147 553.791565,322.454681   C554.155518,318.656860 553.867676,314.801086 554.085754,310.983551   C554.304871,307.147858 555.767578,304.109894 560.202637,303.874176   C564.027100,303.670929 566.744629,306.362976 566.966309,310.925873   C567.167725,315.071472 567.237305,319.273834 566.795532,323.390076   C565.781921,332.834442 561.159729,340.049103 552.352051,344.028625   C549.274658,345.419037 548.057556,347.311493 548.333618,350.564728   C548.515930,352.712646 548.428894,354.892426 548.338562,357.052795   C548.079285,363.254150 544.583313,365.386169 538.294861,362.773163  z"/>
<path fill="#c4e536" opacity="1.000000" stroke="none" d=" M769.034668,319.051788   C767.625916,330.332581 768.535950,341.319794 768.248718,352.288239   C768.222534,353.286591 768.267456,354.286560 768.261719,355.285706   C768.227051,361.313538 766.187317,364.176331 761.924744,364.189484   C757.634460,364.202728 755.624634,361.400238 755.621033,355.360107   C755.614807,345.034851 755.431580,334.704498 755.707520,324.386627   C755.830383,319.790283 754.683350,317.419586 749.646790,318.000671   C748.051575,318.184723 746.291626,317.866699 744.745850,317.357391   C741.730042,316.363831 740.089539,314.071655 740.315796,310.889709   C740.556946,307.498535 742.534668,305.019165 745.961426,304.950897   C756.612976,304.738831 767.275879,304.702667 777.924683,304.976135   C781.323181,305.063416 783.181030,307.705933 783.214355,311.150452   C783.247314,314.561615 781.481689,316.740265 778.150879,317.673370   C775.249756,318.486084 772.126953,317.322052 769.034668,319.051788  z"/>
<path fill="#c4e536" opacity="1.000000" stroke="none" d=" M489.581116,374.897491   C479.766327,375.236328 476.152893,374.030426 462.090363,365.871826   C458.105713,372.876770 452.138580,377.014282 444.001526,374.701874   C436.996643,372.711182 433.272278,367.217285 433.097473,359.603729   C429.419098,359.015320 426.843903,358.332550 426.026367,363.627075   C424.464935,373.739410 412.245270,378.619446 403.820190,372.730316   C401.011169,370.766815 399.047333,370.424316 396.390808,372.458618   C394.489197,373.914856 392.156342,374.255829 389.754089,374.244537   C380.755829,374.202271 371.756165,374.307129 362.759125,374.193085   C355.637268,374.102844 350.049957,368.878754 349.603058,362.136383   C349.916351,362.136383 350.426025,362.016022 350.509308,362.153625   C355.373260,370.191925 363.127563,370.212006 371.164825,369.834167   C376.485443,369.584076 381.830688,369.676727 387.158875,369.827881   C391.120453,369.940216 394.834106,369.510864 397.844025,366.658905   C399.578827,365.015167 400.895233,365.640717 402.613495,366.892395   C412.881744,374.372711 422.468933,370.575104 424.921204,357.972565   C425.567657,354.650360 427.625397,354.805145 430.030212,354.701416   C432.995148,354.573486 434.456696,355.537994 435.026978,358.762268   C436.822296,368.913025 446.369843,373.639404 454.781250,368.902740   C458.020325,367.078735 459.545593,363.913208 461.986603,360.091583   C470.220184,368.547729 480.394135,371.278290 491.602661,369.742249   C503.332672,368.134735 510.865112,361.033813 515.072266,348.664978   C516.786377,360.712646 505.535309,372.837738 489.581116,374.897491  z"/>
<path fill="#c4e536" opacity="1.000000" stroke="none" d=" M772.537292,416.069305   C773.100952,417.622009 772.715759,418.751709 772.094482,419.728180   C769.494995,423.813782 768.649353,427.948700 770.521973,432.692627   C771.877625,436.126709 769.802185,438.897797 766.109802,438.989105   C760.134399,439.136902 754.152527,439.138519 748.175354,439.056488   C744.262024,439.002838 742.318604,437.313110 742.196594,432.920074   C742.073547,428.487854 741.889587,424.089783 742.294678,419.667633   C742.503845,417.384338 742.901917,414.929688 745.633240,414.929474   C754.529724,414.928741 763.473999,413.809845 772.537292,416.069305  z"/>
<path fill="#c4e536" opacity="1.000000" stroke="none" d=" M511.483246,416.481018   C511.606140,415.432159 512.159058,414.990356 512.834717,414.969482   C519.206848,414.772522 525.582520,414.475922 531.952637,414.557556   C533.858948,414.581940 536.774658,414.234131 537.046875,417.302002   C537.278809,419.915222 535.732971,421.654541 532.745789,422.399933   C536.873840,425.311188 537.246643,428.935455 535.496582,433.207977   C533.753113,437.464386 530.718567,439.338013 526.216675,439.225189   C520.922058,439.092529 515.619995,439.162964 510.331390,438.921478   C508.075165,438.818420 505.844849,438.148315 504.338898,437.871307   C506.181061,435.755920 508.157104,433.486816 510.458130,430.844482   C504.450592,427.867065 506.285828,423.133850 507.253815,418.683411   C508.329132,417.166229 510.704224,418.804810 511.483246,416.481018  z"/>
<path fill="#c4e536" opacity="1.000000" stroke="none" d=" M718.919739,416.852722   C718.645508,419.996277 717.465515,421.978546 713.537842,422.357880   C716.436707,423.706482 717.250244,425.453033 716.152466,427.872009   C715.763733,428.728790 715.128601,429.481598 715.334412,430.633881   C716.717590,438.375702 716.521851,438.707764 708.787903,439.037781   C703.822815,439.249664 698.840637,439.156555 693.868652,439.063843   C691.882812,439.026794 689.896729,438.639709 688.412781,436.733154   C688.922180,434.934326 689.454468,433.054504 690.072449,430.872192   C686.487488,429.562622 684.024414,427.745331 688.126160,424.050842   C688.748047,423.490662 688.779602,422.220276 688.980347,421.256744   C689.952576,416.588837 692.417542,414.275055 697.555725,414.666870   C702.997681,415.081909 708.492737,414.772827 713.963440,414.854492   C715.723206,414.880737 717.711304,414.442444 718.919739,416.852722  z"/>
<path fill="#c4e536" opacity="1.000000" stroke="none" d=" M486.340302,414.796326   C489.456482,414.816345 492.117737,414.775238 494.772217,414.889893   C496.512848,414.965088 498.841614,414.549011 498.992065,417.178253   C499.122894,419.464691 498.143494,421.422668 495.614624,422.047150   C494.816742,422.244141 493.977844,422.275085 492.885620,422.417542   C494.863129,423.223083 497.130585,423.528839 496.646912,426.279083   C496.225891,428.673157 494.982788,430.244293 491.119598,430.222382   C494.272430,431.043854 497.035004,430.686432 496.701782,434.043152   C496.397705,437.106079 495.058380,438.957092 491.685364,438.927917   C485.731750,438.876343 479.775696,439.020355 473.823578,438.916473   C470.440735,438.857422 468.437744,437.364380 469.483734,433.559418   C469.918121,431.979401 469.705902,430.830750 468.723053,429.194855   C465.947937,424.575684 471.976349,414.886200 477.438416,414.721924   C480.249756,414.637329 483.067596,414.767975 486.340302,414.796326  z"/>
<path fill="#c4e536" opacity="1.000000" stroke="none" d=" M887.654419,415.972382   C886.888855,420.619293 883.851990,423.905975 882.157837,427.857544   C881.636230,429.074341 881.014648,430.291901 880.213196,431.335846   C878.685486,433.325806 880.384460,436.918701 877.472656,437.897766   C873.185852,439.339172 868.614685,439.273438 864.130676,438.878479   C862.229858,438.711090 860.453003,437.752411 860.621643,435.421967   C861.132202,428.369019 857.878784,422.456024 855.066895,416.396545   C859.443787,413.832336 874.439392,414.124329 878.331116,416.917694   C881.058594,414.553894 884.121033,414.058472 887.654419,415.972382  z"/>
<path fill="#c4e536" opacity="1.000000" stroke="none" d=" M409.441345,415.476746   C412.798187,415.576324 415.554596,414.062805 418.674774,414.531158   C424.090149,415.344025 426.706726,418.245117 426.024536,423.720642   C424.255249,437.922150 418.081909,441.710754 402.515442,437.464935   C403.627045,435.571686 403.500153,433.489014 403.503723,431.188751   C401.639832,430.825043 399.728027,430.451965 397.055908,429.930542   C398.965881,428.604919 400.442902,427.302979 397.883759,425.342224   C399.996338,425.070923 401.458740,424.883118 403.016296,424.683105   C402.262207,423.392639 400.377655,424.245605 399.768341,422.737366   C400.797241,421.313324 402.520294,422.333740 404.206787,421.463257   C402.811829,420.845032 401.634857,420.323395 400.457886,419.801758   C403.932404,419.403839 404.873291,414.144989 409.441345,415.476746  M416.879272,425.239655   C416.844727,424.323578 417.558044,423.233337 415.722290,422.326996   C413.271606,424.689911 412.274078,427.179901 414.324219,430.506683   C417.206818,429.769012 416.502991,427.610138 416.879272,425.239655  z"/>
<path fill="#c4e536" opacity="1.000000" stroke="none" d=" M839.671936,360.694763   C848.760193,369.209381 859.432495,371.609802 870.936829,369.431549   C879.085205,367.888672 885.522461,363.128998 889.307373,355.388306   C890.065735,353.837280 890.821411,352.284882 892.186829,351.069000   C892.409790,358.702179 888.670898,364.325928 882.835449,368.641144   C873.037476,375.886505 857.076782,379.370422 838.942078,365.549408   C834.310181,375.441895 825.321899,374.419861 816.625793,374.298126   C810.303711,374.209656 803.974304,374.402008 797.658508,374.177704   C790.650269,373.928833 784.425537,367.203278 785.231812,361.069519   C785.543457,361.069519 786.070374,360.953979 786.142212,361.085999   C790.427429,368.962891 797.391602,370.483276 805.632019,369.845062   C811.421509,369.396667 817.281555,369.554474 823.094727,369.802582   C829.167480,370.061798 833.797058,368.027649 836.824158,362.640930   C837.377380,361.656494 837.882385,360.491150 839.671936,360.694763  z"/>
<path fill="#c4e536" opacity="1.000000" stroke="none" d=" M440.757050,425.262024   C441.079712,422.278931 436.781586,420.898499 439.038696,416.961731   C439.867950,415.515411 440.447906,414.837097 441.565155,414.827332   C448.195099,414.769287 454.835144,414.727386 461.453857,415.049164   C464.379456,415.191406 465.584320,419.691742 462.904968,420.834717   C456.637695,423.508362 457.983459,429.090546 456.732605,433.708801   C455.592224,437.919312 449.438110,440.709503 447.492035,437.437592   C445.902618,434.765320 442.162781,433.854523 442.068512,430.161926   C442.028564,428.597443 441.171265,427.053833 440.757050,425.262024  z"/>
<path fill="#c4e536" opacity="1.000000" stroke="none" d=" M587.152710,369.246552   C585.179504,369.222076 583.667297,369.323547 582.188049,369.147400   C578.708496,368.733063 576.826721,366.565582 576.563171,363.191925   C576.313416,359.994965 577.828125,357.402283 580.976135,356.816711   C588.538635,355.410004 596.223145,355.512604 603.802307,356.625183   C607.388367,357.151581 609.125610,360.103973 608.697388,363.661621   C608.294739,367.006592 606.059326,369.056671 602.604126,369.162231   C597.616089,369.314575 592.620789,369.229889 587.152710,369.246552  z"/>
<path fill="#c4e536" opacity="1.000000" stroke="none" d=" M367.166870,416.110413   C371.637115,415.119385 373.965118,419.838806 378.272888,419.466125   C378.524323,418.793640 378.748657,417.829803 379.218506,417.006012   C380.558258,414.656738 382.806366,414.815369 384.942871,415.325348   C387.448822,415.923553 387.005524,417.866394 386.654663,419.748932   C385.802734,424.319977 385.102020,428.920288 384.183655,433.477264   C383.803864,435.361877 383.609680,437.611206 381.058380,438.052460   C378.564270,438.483856 376.372162,437.898438 375.024017,435.587494   C373.944366,433.736725 372.664642,432.591736 370.324310,432.980865   C366.093750,433.684326 365.488312,431.049500 366.000946,427.837067   C366.617188,423.975067 367.700226,420.171692 367.166870,416.110413  z"/>
<path fill="#c4e536" opacity="1.000000" stroke="none" d=" M738.290039,350.238922   C739.683899,347.674164 739.916809,344.908997 741.933228,342.690735   C743.727600,349.032410 737.682678,360.177551 729.304504,366.704285   C717.263733,376.084259 700.654785,377.602325 688.122253,370.164246   C682.031555,366.549377 676.092590,362.558624 674.622864,354.401367   C686.090332,367.727936 699.983521,373.251434 716.921326,368.389679   C726.430664,365.660217 733.501465,359.422913 738.290039,350.238922  z"/>
<path fill="#c4e536" opacity="1.000000" stroke="none" d=" M633.827393,371.987854   C628.839294,375.678436 623.745178,376.328674 618.505493,373.843445   C616.191772,372.746002 614.945374,373.300964 613.462830,375.116730   C610.437195,378.822357 606.452148,380.422668 601.597656,380.294861   C594.779480,380.115295 587.948730,380.393616 581.131775,380.192047   C573.666443,379.971313 567.735779,373.014557 568.777527,366.010071   C570.487732,365.836578 570.403259,367.416656 570.896545,368.304962   C573.632629,373.232208 577.544189,375.955994 583.399536,375.785339   C589.385437,375.610870 595.383362,375.618652 601.370117,375.774658   C606.279053,375.902527 610.126282,374.093994 612.951233,370.166443   C614.227112,368.392578 615.160950,367.308502 617.750305,368.572235   C625.437378,372.323914 630.040894,371.148682 635.711243,364.580200   C636.446899,363.728027 636.967896,362.609772 638.624756,362.517731   C639.456177,366.858337 636.565002,369.200043 633.827393,371.987854  z"/>
<path fill="#c4e536" opacity="1.000000" stroke="none" d=" M535.507690,368.645935   C544.574707,372.204163 548.132385,370.766083 555.553589,360.849854   C557.199829,363.307709 556.732239,365.502808 553.800842,369.077667   C549.231873,374.649597 542.407166,376.546204 536.440613,373.902100   C530.521545,371.279022 527.198303,366.044189 527.945312,359.819672   C530.670105,362.769562 531.651306,366.773743 535.507690,368.645935  z"/>
<path fill="#c4e536" opacity="1.000000" stroke="none" d=" M758.872681,370.046387   C766.619934,371.438629 771.311523,367.304474 775.329407,360.475159   C776.042969,368.517609 769.888123,374.646362 762.363586,375.156647   C754.861938,375.665405 747.597900,369.209015 747.501953,360.715942   C751.306213,364.446991 753.391541,369.280304 758.872681,370.046387  z"/>
<path fill="#c4e536" opacity="1.000000" stroke="none" d=" M662.551392,370.598145   C668.265930,369.677765 671.335693,365.733734 674.546875,361.782349   C675.550415,366.882874 672.909973,370.125031 669.330627,372.547729   C664.238220,375.994598 658.702393,376.447968 653.332336,373.142578   C649.493164,370.779449 646.797485,367.503143 647.047058,362.418854   C651.323364,366.872925 655.323242,371.382568 662.551392,370.598145  z"/>
<path fill="#c4e536" opacity="1.000000" stroke="none" d=" M561.313904,351.287537   C559.465698,352.352203 558.292786,353.927124 556.278992,354.148132   C554.448181,352.513702 554.694580,350.642578 556.525696,349.618317   C565.005920,344.875092 569.833130,337.364105 573.423096,328.692719   C573.845398,338.419464 568.539124,345.170502 561.313904,351.287537  z"/>
<path fill="#c4e536" opacity="1.000000" stroke="none" d=" M522.042053,345.968170   C524.273926,348.576355 529.300232,348.532837 528.274597,353.494965   C520.716919,352.050262 514.492737,345.184204 514.303833,337.579773   C517.033630,340.563477 519.401245,343.151398 522.042053,345.968170  z"/>
<path fill="#c4e536" opacity="1.000000" stroke="none" d=" M835.804932,335.652710   C834.349426,331.873230 835.894836,327.587982 832.283752,324.768158   C831.491699,324.149628 832.364746,322.931671 833.340698,322.425873   C834.223145,321.968597 835.327393,322.249390 835.346619,323.094543   C835.471008,328.579498 838.406494,333.201050 840.683411,338.041809   C837.585815,339.086578 837.123413,336.979187 835.804932,335.652710  z"/>
<path fill="#c4e536" opacity="1.000000" stroke="none" d=" M785.631226,324.182037   C784.461304,328.796204 780.891602,328.926086 777.392273,329.079041   C776.312683,329.126282 775.489624,328.449707 775.217224,327.376709   C774.993164,326.494446 775.365540,325.422638 776.173523,325.341003   C779.323547,325.022888 782.073975,322.209015 785.631226,324.182037  z"/>
<path fill="#c4e536" opacity="1.000000" stroke="none" d=" M642.723145,329.329895   C640.986145,329.149811 638.750427,331.058838 638.424500,328.280853   C638.182251,326.216156 640.003601,325.093323 641.959167,324.851471   C645.391602,324.426910 647.191040,326.004120 647.383179,329.338898   C645.715637,331.020599 644.441406,329.112457 642.723145,329.329895  z"/>
<path fill="#c4e536" opacity="1.000000" stroke="none" d=" M887.675171,321.224670   C889.621155,322.616638 889.775879,323.810699 888.298218,326.191742   C887.460388,327.541809 886.643433,329.317841 884.646912,328.878723   C883.150024,328.549500 883.190125,327.282776 883.971619,326.170166   C885.096802,324.568298 886.301392,323.022156 887.675171,321.224670  z"/>
<path fill="#c4e536" opacity="1.000000" stroke="none" d=" M511.761414,331.769470   C509.347595,331.268829 508.712158,328.540466 506.285034,328.531708   C506.287415,325.710510 508.072205,324.992188 509.421722,323.555664   C511.724487,326.020203 511.502991,328.881927 511.761414,331.769470  z"/>
<path fill="#c4e536" opacity="1.000000" stroke="none" d=" M744.308472,328.990417   C742.337524,328.129211 741.272888,327.050995 741.933655,324.711090   C744.192932,324.848083 747.140259,323.719208 748.022461,326.856537   C748.658813,329.119598 746.350891,329.137543 744.308472,328.990417  z"/>
<path fill="#c4e536" opacity="1.000000" stroke="none" d=" M831.053833,343.708008   C832.127869,341.343140 833.314636,339.409393 835.468384,337.671356   C836.723206,340.756287 835.446228,342.833832 833.810791,344.635773   C832.932556,345.603363 831.690979,345.564575 831.053833,343.708008  z"/>
<path fill="#c4e536" opacity="1.000000" stroke="none" d=" M224.554474,459.409180   C223.551376,457.176270 223.836441,455.391327 225.444839,454.185883   C227.638214,452.541992 230.096390,452.697998 232.377441,454.082916   C233.738449,454.909302 234.448929,456.256073 233.867615,457.886505   C232.945816,460.471832 230.772614,461.069489 228.336227,461.103394   C226.985031,461.122223 225.727234,460.813446 224.554474,459.409180  z"/>
<path fill="#c4e536" opacity="1.000000" stroke="none" d=" M219.625763,391.058105   C217.408066,391.275391 215.437363,391.463654 214.787338,389.166321   C214.410263,387.833618 215.464417,387.037231 216.570404,386.551941   C218.251160,385.814423 219.935318,386.041260 221.104340,387.412567   C222.410828,388.945099 221.514404,390.127960 219.625763,391.058105  z"/>
<path fill="#c4e536" opacity="1.000000" stroke="none" d=" M212.101929,378.112671   C213.165115,380.296844 212.714050,381.642914 210.435776,381.648834   C209.048721,381.652466 207.665619,380.845734 208.038925,379.251495   C208.520325,377.195587 210.104065,376.998291 212.101929,378.112671  z"/>
<path fill="#c4e536" opacity="1.000000" stroke="none" d=" M207.838959,391.514526   C206.324417,389.646332 206.373032,388.216980 208.649048,387.662201   C209.887115,387.360413 211.106766,388.047272 211.270752,389.325867   C211.575928,391.705261 210.002228,392.010071 207.838959,391.514526  z"/>
<path fill="#c4e536" opacity="1.000000" stroke="none" d=" M172.175537,357.310059   C167.582260,360.152405 163.160904,362.574127 157.919342,362.073212   C155.502243,361.842224 152.979202,361.241211 151.557373,358.768921   C152.151581,356.506470 154.130508,357.001038 155.609222,356.630341   C163.604614,354.625885 171.296600,352.070557 176.798752,345.376556   C180.972153,340.299103 181.057327,339.341858 177.738190,334.475922   C183.751236,331.056030 189.555084,333.775391 190.899734,341.053192   C187.668564,340.372559 185.897491,341.880707 184.498718,344.704315   C181.847794,350.055573 177.363235,353.820801 172.175537,357.310059  z"/>
<path fill="#c4e536" opacity="1.000000" stroke="none" d=" M151.348114,331.544678   C149.027771,327.431244 149.593185,324.061218 153.379761,321.913483   C156.654587,320.056000 159.866867,320.810242 162.036438,324.022095   C164.102783,327.081177 163.475769,330.158630 160.826385,332.464478   C157.732681,335.157013 154.496002,334.758362 151.348114,331.544678  z"/>
<path fill="#c4e536" opacity="1.000000" stroke="none" d=" M112.856781,331.084045   C108.320290,330.688171 105.935188,328.561920 106.551552,324.226501   C106.970009,321.283081 109.042175,319.399902 112.003807,319.272888   C115.036354,319.142822 117.083298,321.142303 117.788727,323.895020   C118.744965,327.626495 116.642166,329.849396 112.856781,331.084045  z"/>
<path fill="#c4e536" opacity="1.000000" stroke="none" d=" M153.693268,262.828003   C153.496460,267.101440 150.141510,268.978699 146.989243,266.985382   C145.944946,266.325043 145.261261,265.470673 145.437439,264.177307   C145.610825,262.904510 146.536072,262.212006 147.599869,261.712280   C149.732071,260.710632 151.716949,260.915283 153.693268,262.828003  z"/>
<path fill="#c4e536" opacity="1.000000" stroke="none" d=" M175.350800,258.324219   C176.976379,260.659790 176.101944,262.076691 174.098389,262.893311   C172.652557,263.482574 171.118469,263.351379 169.914734,262.166595   C168.799942,261.069336 168.690186,259.751465 169.701050,258.590149   C171.280365,256.775757 173.165512,256.895905 175.350800,258.324219  z"/>
<path fill="#c4e536" opacity="1.000000" stroke="none" d=" M160.375793,259.074646   C159.245911,261.285614 157.767181,261.475342 156.286316,260.021606   C155.296936,259.050354 155.533173,257.723999 156.706833,257.045135   C158.575455,255.964325 159.863464,256.688202 160.375793,259.074646  z"/>
<path fill="#c4e536" opacity="1.000000" stroke="none" d=" M204.278824,290.038330   C207.837601,298.600525 205.068695,306.723572 197.671936,310.246948   C190.511414,313.657806 181.978745,310.973785 178.268539,304.143402   C174.342041,296.914825 176.562698,288.171509 183.371262,284.052734   C190.430588,279.782257 198.963013,282.099548 204.278824,290.038330  M195.687775,295.368195   C197.219086,292.622101 196.174606,290.544434 193.849762,288.975128   C192.157700,287.832977 190.345947,288.018616 188.754852,289.296661   C186.970276,290.730103 186.729202,292.715485 187.302429,294.738892   C188.268875,298.150208 191.276764,298.574158 195.687775,295.368195  z"/>
<path fill="#c4e536" opacity="1.000000" stroke="none" d=" M121.239288,279.208618   C128.482727,279.358704 132.895401,283.600769 133.038345,290.191284   C133.156525,295.641235 128.833298,300.465210 123.693192,300.618835   C118.592163,300.771301 114.156570,296.050018 113.897644,290.055695   C113.834633,288.596893 114.145027,287.121979 114.359253,284.855316   C110.211052,289.785797 107.366608,294.625488 105.541985,300.090942   C104.885284,302.058014 104.685448,304.817810 101.404480,303.435669   C98.573067,302.242920 97.884109,300.115814 99.230141,297.337006   C101.029663,293.622040 102.815536,289.900421 104.579903,286.238434   C102.625557,283.760101 99.924301,283.976044 97.647156,283.199127   C95.723534,282.542938 93.613800,281.973541 94.260590,279.213928   C94.846664,276.713379 96.890854,275.850067 98.858849,276.835205   C107.461105,281.141205 112.057838,276.292664 116.817093,270.044159   C121.059380,264.474304 122.576202,264.590851 126.949883,268.313721   C125.959770,271.803223 122.435486,273.355377 120.510475,276.147095   C119.274849,277.938995 119.216904,277.899048 121.239288,279.208618  M126.433365,288.054382   C127.049919,286.007843 126.410637,284.476685 124.419937,283.704620   C122.949425,283.134308 121.924667,283.966888 121.165817,285.169342   C120.383507,286.408997 120.313690,287.702942 121.350113,288.774170   C122.900032,290.376068 124.524979,290.111664 126.433365,288.054382  z"/>
<path fill="#c4e536" opacity="1.000000" stroke="none" d=" M700.933105,330.516113   C699.639282,331.478058 699.214050,333.067749 697.552368,332.884796   C697.031616,327.879822 699.752502,325.084198 705.409180,324.789948   C711.637756,324.465942 714.677979,327.007721 714.724182,333.218872   C710.606750,329.518433 706.271301,327.788696 700.933105,330.516113  z"/>
<path fill="#c4e536" opacity="1.000000" stroke="none" d=" M430.725403,324.849304   C432.197632,325.273315 433.273438,325.670288 433.267639,327.477020   C431.140625,328.791168 428.923706,328.452942 426.595520,327.663696   C426.653412,324.892334 428.570404,324.943695 430.725403,324.849304  z"/>
</svg>