<svg xmlns="http://www.w3.org/2000/svg" xmlns:xlink="http://www.w3.org/1999/xlink" version="1.1" id="Layer_1" x="0px" y="0px" width="100%" viewBox="0 0 336 304" enable-background="new 0 0 336 304" xml:space="preserve">
<path fill="#858e35" opacity="1.000000" stroke="none" d=" M291.666016,227.529755   C272.978027,266.232483 243.448273,290.731842 201.186920,298.539062   C170.629288,304.184143 141.939468,298.798981 115.665596,281.819672   C112.862389,280.008118 112.891472,279.963104 113.819504,272.467438   C101.990814,276.099945 94.491295,269.139984 87.326332,261.668304   C80.410858,254.456741 73.680138,247.067490 66.901375,239.725708   C65.151764,237.830811 63.262936,236.544220 60.533482,236.255325   C52.825096,235.439407 48.247482,230.811142 46.233360,223.550690   C44.225689,216.313492 45.740139,209.634171 51.680981,205.097046   C55.413029,202.246841 55.483829,199.414841 54.558399,195.696854   C53.150425,190.040207 51.766682,184.377472 50.388050,178.713577   C48.897869,172.591431 50.094406,171.177307 56.558628,171.670380   C58.353043,167.676102 57.825203,163.233170 58.499802,159.026199   C61.785255,138.537354 69.493660,119.986153 82.213226,103.595482   C84.372223,100.813362 84.854568,98.446915 83.862755,94.961723   C80.502449,83.153618 82.876991,72.422905 91.783539,63.743996   C100.459755,55.289524 110.940346,53.408314 122.292488,57.152988   C125.652733,58.261417 128.230316,58.102196 131.094070,56.076176   C133.383209,54.456680 135.982376,53.164364 138.608521,52.155163   C144.225006,49.996799 148.681061,47.378086 151.731537,41.338551   C155.694702,33.492016 166.613358,32.882824 173.367691,38.957932   C174.467484,39.947144 175.406601,41.115002 176.761108,42.565639   C181.417374,37.290737 186.753311,33.596512 194.151855,35.299770   C201.376877,36.963085 204.788559,42.203190 206.426239,48.825237   C224.259949,47.577705 231.027557,53.893627 228.186172,68.308678   C247.970779,73.473465 261.373535,87.268784 273.739807,102.081573   C293.023834,125.180725 302.935974,151.877167 302.106873,182.172638   C301.678650,197.820068 297.958313,212.801270 291.666016,227.529755  M221.624222,284.176880   C224.189667,281.890533 227.208313,280.785614 230.590897,280.170746   C239.636185,278.526581 240.843521,276.325897 238.576050,267.660400   C230.441223,236.571854 222.588333,205.430481 221.594620,173.048935   C221.439453,167.992462 220.775177,162.951599 220.230118,156.535782   C200.649750,175.657303 177.623093,180.859528 152.440857,177.863571   C151.580307,181.880142 152.890884,184.638809 153.766769,187.456207   C154.281448,189.111786 155.402008,190.041595 157.178879,189.407455   C162.256073,187.595474 163.274857,190.397079 163.413635,194.595154   C163.536270,198.305084 165.231750,200.158661 169.372818,200.110916   C174.593124,200.050735 179.476120,202.076248 184.247757,204.059982   C193.354248,207.845871 193.333649,207.895416 201.354782,206.755753   C202.031570,212.567337 198.386871,216.354599 193.071503,214.948669   C190.221786,214.194916 187.513260,212.734314 184.897797,211.305710   C180.150330,208.712585 175.096542,207.065125 169.787262,206.406006   C164.306198,205.725586 159.563858,207.269424 156.378220,212.192764   C153.258377,217.014404 154.685486,221.492813 157.607849,225.667130   C165.932785,237.558395 178.181808,242.711288 191.917175,244.779999   C207.523911,247.130554 217.133911,239.208359 217.844910,221.823349   C217.896606,220.558960 217.625854,219.063553 219.841980,218.422836   C222.933640,221.823486 223.104111,226.169525 222.593506,230.367767   C220.824585,244.912018 207.409973,254.084122 191.953583,251.879974   C184.687286,250.843781 177.927109,248.284531 170.361282,245.189545   C172.151871,250.584625 169.380966,252.109207 165.583252,253.176147   C161.261734,254.390259 157.041611,255.967728 152.784454,257.408051   C143.954178,260.395569 135.174393,263.542755 126.282776,266.334259   C121.443535,267.853485 121.766876,272.051147 120.891144,275.573364   C120.098236,278.762482 123.220467,279.286560 125.085930,280.287781   C128.891449,282.330231 132.793869,284.267731 136.827362,285.797577   C165.020706,296.491302 193.119888,297.780670 221.624222,284.176880  M108.120003,115.892448   C105.053711,115.469284 102.177803,113.878326 99.025299,114.160133   C93.725708,132.860321 99.131317,148.791702 110.865257,157.702347   C118.173019,163.251785 126.529488,166.279327 135.241943,168.759888   C150.234848,173.028534 165.533005,168.726196 180.583817,170.717392   C180.742905,170.738464 180.913162,170.679596 181.077652,170.654404   C208.991486,166.378403 230.540878,143.084122 232.621002,114.937927   C233.350449,105.067780 232.248825,103.772697 222.679855,101.339897   C218.742935,100.338982 216.948471,101.076828 215.381714,105.174187   C208.610138,122.883316 188.947937,130.107712 172.618042,121.030716   C162.671768,115.502068 157.736694,106.627258 156.832336,95.392960   C156.287811,88.628601 150.512009,91.086052 146.880707,89.816238   C143.608795,88.672104 143.004333,91.072319 142.253662,93.414368   C137.191223,109.209106 125.644218,117.046120 108.120003,115.892448  M243.249893,97.442604   C247.437149,100.066597 250.034531,103.577988 250.374420,108.744743   C250.882401,116.466339 245.774246,120.298180 240.188522,123.721588   C240.482849,124.306892 240.560089,124.666176 240.780930,124.869469   C245.822174,129.510635 248.628967,135.040848 246.015930,141.818176   C243.355881,148.717499 237.822433,152.011627 230.461899,152.286255   C229.168106,152.334534 227.681961,152.192932 227.416733,153.908951   C227.448288,155.016800 228.108093,155.463303 228.823959,155.942978   C241.887558,164.696548 242.836075,168.549057 235.039337,181.777603   C233.910309,183.693207 233.944489,185.291153 235.635925,186.622742   C243.520157,192.829681 244.292587,200.216690 239.597382,208.701508   C237.743851,212.051041 240.386551,213.386429 242.805511,213.987457   C245.414307,214.635666 251.557739,207.628281 251.161194,204.778427   C250.496948,200.004898 251.469894,195.720596 255.373795,192.681488   C257.619263,190.933426 258.235779,189.212753 257.894318,186.343826   C257.060638,179.339691 260.116089,174.017670 266.561035,172.624130   C271.299469,171.599594 271.974426,168.732788 272.891602,165.035172   C273.739258,161.617798 272.671967,157.694122 275.179596,154.741089   C278.634369,154.733017 278.970428,159.212799 282.163544,159.098557   C282.465057,158.780029 282.748016,158.575409 282.906982,158.299362   C286.815521,151.512085 284.665710,145.488419 280.501526,139.758408   C276.118103,133.726746 273.193237,127.408569 276.181061,119.787895   C276.809753,118.184433 275.976440,116.861481 275.187653,115.590317   C268.262695,104.430580 259.302887,95.114578 249.102966,86.937050   C248.216339,86.226204 247.259964,85.470558 245.733139,85.749954   C243.912567,88.849190 242.024109,92.063995 240.044342,95.434212   C241.014191,96.033714 241.854172,96.552956 243.249893,97.442604  M156.355667,234.134369   C155.478271,233.131653 154.551880,232.167358 153.731079,231.120285   C145.692596,220.865936 146.233459,212.798950 155.535355,203.910416   C155.775772,203.680679 156.040192,203.475647 156.297562,203.264160   C157.854706,201.984573 157.862930,200.455124 157.032913,198.781601   C156.158600,197.018738 154.636856,197.133408 153.156845,197.591934   C140.433243,201.533936 127.720703,205.511734 115.012085,209.501846   C112.996269,210.134750 112.000221,211.419418 112.523346,213.665665   C115.844765,227.927292 119.138634,242.195328 122.441917,256.461182   C122.992783,258.840179 124.232719,259.801361 126.775528,258.967407   C138.008255,255.283447 149.268051,251.681976 160.521698,248.061966   C163.299789,247.168320 163.856659,245.322662 163.346848,242.595963   C162.615265,238.683350 159.092957,237.229004 156.355667,234.134369  M269.170746,203.503326   C262.953949,218.649658 255.087280,232.557022 240.558304,241.423096   C238.803207,242.494156 238.660553,243.880753 239.161713,245.693756   C240.356720,250.016983 241.147995,254.473648 242.637466,258.687256   C244.036926,262.646149 244.050140,267.270386 247.455719,270.388733   C278.598389,255.722626 297.519196,195.515732 277.989868,172.384140   C275.547638,182.815430 273.353027,193.051208 269.170746,203.503326  M153.046570,84.256393   C156.682526,85.586143 158.644699,84.205215 160.515045,80.822609   C167.601913,68.005653 178.468063,62.870312 193.116730,64.879929   C204.301727,66.414383 213.822327,75.766197 216.976669,88.316879   C218.701935,95.181465 221.055161,96.560562 228.805542,95.249123   C227.328690,80.190163 206.515884,60.169964 185.983871,54.705029   C167.435074,49.767960 149.727875,51.428970 133.031296,62.557629   C136.609924,67.049294 140.421539,70.611778 141.164871,75.420280   C142.216217,82.221359 146.425568,83.910606 153.046570,84.256393  M211.165329,90.386299   C208.015793,76.205460 195.924149,68.364761 181.633728,71.236862   C170.339554,73.506783 161.686935,86.129845 163.560501,97.603386   C165.829269,111.497185 177.504822,120.438927 191.038391,118.647354   C204.102051,116.917976 212.993805,104.911194 211.165329,90.386299  M89.171844,86.443726   C89.761223,100.588448 99.697067,110.025261 113.708099,109.747620   C126.530411,109.493546 136.907700,98.763786 136.876205,85.792610   C136.844818,72.859360 126.758263,62.361309 114.095306,62.082302   C99.842171,61.768257 89.781311,71.239662 89.171844,86.443726  M137.290848,195.727905   C139.204941,195.159653 141.084518,194.365768 143.039795,194.066681   C148.289673,193.263641 147.571228,190.038620 146.550323,186.370972   C145.326202,181.973251 142.513229,183.420975 139.862961,184.371353   C126.860985,189.033829 114.094398,194.287781 101.534203,200.024673   C98.072769,201.605682 95.938728,201.076828 93.593811,197.874069   C88.586861,191.035477 83.085930,184.557922 77.765907,177.949738   C76.606361,176.509415 75.396927,174.898071 73.224686,176.265671   C70.893402,177.733429 68.116272,178.628387 66.432854,181.037277   C67.740242,184.188492 70.422218,185.736862 72.583710,187.726242   C77.842773,192.566605 83.508690,197.009003 88.412926,202.178802   C93.657158,207.706940 96.153099,209.058258 103.215469,206.475174   C114.169907,202.468567 125.458290,199.570175 137.290848,195.727905  M59.445587,187.348206   C60.074440,190.432571 60.746338,193.508972 61.318569,196.603806   C61.779423,199.096237 63.009460,200.540680 65.542244,201.509232   C76.202812,205.585800 80.364937,217.082428 75.374893,227.381714   C74.195793,229.815338 70.423607,231.440796 71.861900,234.519150   C72.990906,236.935516 75.585342,238.668198 77.533112,240.700439   C78.107956,241.300217 78.778030,241.826370 79.266785,242.487976   C81.428780,245.414566 84.108208,246.186813 87.597542,244.658020   C87.687096,243.795319 87.940926,242.961716 87.829689,242.180069   C86.145424,230.344955 84.412071,218.516815 82.693512,206.686584   C82.404755,204.698837 80.961327,203.529312 79.590630,202.325409   C74.098984,197.502106 68.629494,192.652008 63.052357,187.929260   C62.160213,187.173782 61.416672,184.978958 59.445587,187.348206  M96.647308,247.758957   C101.047424,250.840073 105.722069,251.795074 110.776878,249.513870   C111.981979,248.969986 113.589340,248.343628 113.272499,246.784897   C111.968292,240.368515 111.319054,233.753723 108.326431,227.178467   C103.422661,230.189148 98.276787,228.795227 92.944122,229.607132   C93.707916,235.719101 93.506340,241.692963 96.647308,247.758957  M60.749081,229.719452   C65.174263,229.940598 67.901695,227.433960 69.823753,223.864822   C71.931877,219.950195 71.208168,213.810806 68.206841,210.772186   C65.642868,208.176392 62.663528,206.515366 58.802258,208.057693   C54.379333,209.824356 52.000378,213.764450 52.216515,219.264694   C52.421692,224.486115 54.953072,228.014755 60.749081,229.719452  M93.782196,221.966873   C97.174706,223.246552 100.608734,223.347305 104.048485,222.221298   C106.608772,221.383179 107.222321,219.452087 106.600250,217.055634   C106.149506,215.319214 105.762535,212.901642 103.328529,213.509995   C99.140190,214.556854 94.912270,214.005203 90.299477,213.955231   C91.121712,216.981583 90.395805,219.861359 93.782196,221.966873  M239.335449,220.249542   C237.650604,219.066010 236.099411,217.504364 233.391296,218.083725   C234.006897,224.083313 234.869095,229.761597 237.207581,235.318130   C243.459656,230.883911 243.994370,227.347900 239.335449,220.249542  M197.686020,44.975048   C191.682190,39.698372 185.843430,40.465946 183.581039,47.284878   C188.402802,48.703979 193.200974,50.116138 197.904526,51.500450   C199.182663,49.048084 198.888641,47.317848 197.686020,44.975048  M230.184937,145.985291   C235.246872,146.247131 239.002777,144.138077 240.477127,139.278000   C241.528793,135.811340 240.726364,132.514160 236.522705,130.096497   C234.133728,135.542999 231.924072,140.580688 230.184937,145.985291  M209.503571,56.148319   C208.544434,57.117401 208.948059,57.964649 209.824188,58.647751   C213.209091,61.286949 216.622986,63.888985 220.164886,66.611565   C223.501740,63.120899 222.779907,59.954247 219.858902,57.349701   C217.093536,54.883942 213.657562,54.257893 209.503571,56.148319  M230.537094,81.103310   C231.968277,83.845078 233.399475,86.586838 235.003433,89.659576   C238.434570,86.832039 239.824997,83.847610 237.828369,80.266541   C235.931717,76.864815 232.882996,75.266479 228.727982,76.055840   C228.487671,78.025108 229.602417,79.161568 230.537094,81.103310  M228.141571,177.297897   C231.391129,177.186111 233.210648,175.337494 233.688492,171.662277   C234.240295,167.418427 231.795639,164.089417 226.999771,162.853012   C227.225586,167.516647 226.787781,172.127014 228.141571,177.297897  M232.287903,206.071167   C235.794296,204.192108 237.135437,201.231445 236.223969,197.434570   C235.417404,194.074585 233.640945,191.515762 229.700089,191.243134   C229.378845,196.148453 230.255310,202.474747 232.287903,206.071167  M259.368591,196.801086   C255.645828,201.244263 255.833832,203.214020 260.711426,206.587311   C262.969116,203.350510 264.734680,200.023605 264.951355,196.057098   C262.948853,194.819595 261.489410,195.923828 259.368591,196.801086  M243.480560,112.920097   C245.084717,107.333221 243.881927,104.711937 238.318878,102.826546   C238.686050,107.356216 239.031555,111.618797 239.376022,115.868355   C241.641602,115.739594 242.384598,114.621544 243.480560,112.920097  M263.989532,181.511948   C262.859680,184.720856 263.712128,187.182587 266.876801,189.191589   C269.147491,185.624512 269.909332,181.990662 269.950500,178.060242   C267.162628,177.745178 265.562134,178.991379 263.989532,181.511948  M255.039490,218.694504   C255.666412,217.325134 257.481720,216.308929 256.414673,214.395432   C249.561386,215.126953 246.748718,219.658020 249.949783,224.837769   C252.212570,223.552185 253.183914,221.183151 255.039490,218.694504  M158.102036,46.112988   C161.610641,45.266769 165.505341,46.704178 169.195038,44.489281   C166.939514,41.735931 164.397522,41.026520 161.461227,41.647800   C158.709290,42.230064 157.602692,43.556725 158.102036,46.112988  z"/>
<path fill="#858e35" opacity="1.000000" stroke="none" d=" M217.975815,271.311951   C214.373734,271.244232 212.243500,269.711029 211.436752,266.611023   C210.857666,264.385803 212.067688,262.808990 213.759766,261.581146   C216.161469,259.838409 218.702301,260.012817 221.223328,261.283051   C223.325043,262.341949 224.587112,264.119690 224.263138,266.466888   C223.812271,269.733185 221.562485,271.175507 217.975815,271.311951  z"/>
<path fill="#858e35" opacity="1.000000" stroke="none" d=" M234.050232,273.126892   C233.381226,273.317108 233.066605,273.427979 232.743820,273.462463   C230.368744,273.716309 228.086884,273.598328 226.774567,271.186127   C226.157028,270.050995 226.488815,268.913361 227.500290,268.118439   C229.693878,266.394501 232.117172,266.457764 234.415848,267.726044   C237.423477,269.385468 237.673920,271.259521 234.050232,273.126892  z"/>
<path fill="#858e35" opacity="1.000000" stroke="none" d=" M188.631592,139.740585   C185.563751,139.416214 184.124863,140.831360 182.741348,143.283890   C177.870728,151.917923 170.465317,157.603271 161.034973,160.546326   C156.687256,161.903183 152.603271,161.506271 149.437271,157.778015   C150.388870,155.499634 152.311691,155.991226 153.828720,155.598511   C162.318054,153.400803 170.362595,150.471924 175.853882,142.992126   C178.180588,139.822906 180.041107,136.801132 175.513535,133.960876   C180.787155,129.822968 187.023651,132.582153 188.631592,139.740585  z"/>
<path fill="#858e35" opacity="1.000000" stroke="none" d=" M161.077454,127.698105   C159.938858,130.974915 158.085312,133.010223 154.858078,133.141479   C151.389603,133.282501 149.094681,131.392441 148.264648,128.159592   C147.359497,124.634186 148.761932,121.886642 152.191803,120.521225   C155.399490,119.244255 158.074493,120.275780 160.040649,123.040909   C160.926636,124.286896 161.339401,125.736099 161.077454,127.698105  z"/>
<path fill="#858e35" opacity="1.000000" stroke="none" d=" M114.791870,127.725906   C112.310646,130.321793 109.747810,130.969193 107.039238,129.051636   C104.428246,127.203171 103.599731,124.514297 105.153526,121.687286   C106.608437,119.040176 109.086502,117.311333 112.134964,118.865639   C115.610184,120.637527 117.233055,123.496101 114.791870,127.725906  z"/>
<path fill="#858e35" opacity="1.000000" stroke="none" d=" M199.961304,86.088135   C205.286697,93.271896 205.445831,99.055023 200.731934,104.985603   C196.298660,110.563118 189.433777,112.204681 182.827744,109.266975   C176.792099,106.582916 173.451157,99.849922 174.780411,92.637314   C175.771912,87.257370 179.234756,83.811249 184.205872,81.932030   C190.202972,79.664986 195.255386,81.660271 199.961304,86.088135  M186.039200,95.309845   C188.164459,97.336601 190.471130,97.406013 192.674179,95.608459   C194.136459,94.415337 194.924118,92.762276 194.173981,90.776520   C193.418640,88.777046 192.094025,87.438408 189.847214,87.298180   C186.266342,87.074692 184.740906,89.731812 186.039200,95.309845  z"/>
<path fill="#858e35" opacity="1.000000" stroke="none" d=" M96.584869,98.903168   C98.560776,94.023933 100.546066,89.493309 102.522079,84.983864   C100.187431,82.565636 97.138840,82.750717 94.549309,81.786613   C92.711685,81.102440 91.842499,79.955978 92.422920,77.943047   C92.957458,76.089272 94.207001,74.602783 96.022644,75.589981   C105.813217,80.913315 110.837486,74.548393 115.949936,67.892509   C118.586090,64.460533 121.646553,63.323563 125.217560,67.716331   C122.548264,71.729362 117.558830,74.021652 116.022682,79.061386   C124.946411,77.681335 130.389328,81.107140 131.045105,88.350090   C131.542908,93.848213 127.045479,99.201691 121.795113,99.360748   C115.217087,99.560020 111.695465,94.162689 112.101639,83.898064   C108.029533,88.505867 105.475136,93.428467 103.582214,98.750626   C103.042526,100.268005 103.006935,102.402573 100.966698,102.607422   C98.722336,102.832764 97.334862,101.313675 96.584869,98.903168  M118.553925,86.332260   C119.248688,88.407127 120.665726,89.251053 122.761185,88.580322   C124.191536,88.122482 124.781342,86.961899 124.645302,85.479820   C124.508270,83.986946 123.594200,82.960167 122.229279,82.679863   C119.956993,82.213234 118.954575,83.661705 118.553925,86.332260  z"/>
</svg>